<svg version="1.2" xmlns="http://www.w3.org/2000/svg" viewBox="0 0 1280 720" width="1280" height="720">
	<title>Novo Projeto</title>
	<style>
		.s0 { fill: #ed3221 } 
	</style>
	<path id="TechFeed" class="s0" aria-label="TechFeed"  d="m136.7 452.5h-44.8v-139.5h-50.4v-37.9h145.7v37.9h-50.5zm190.3-35.6v31.1q-7.9 2.8-21.9 5-13.7 2-32.8 2-24.1 0-41.2-6.2-16.8-6.4-25.4-21.5-8.7-15.5-8.7-42.6 0-37 16.8-53.5 17.1-16.6 52.6-16.6 25.5 0 40.1 7.3 14.8 7.3 21 20.8 6.5 13.1 6.5 31.3 0 5.4-0.6 11.5-0.3 6.2-1.4 12.1l-1.1 1.1h-92.2q2 12.3 11.5 16.2 9.8 4 31.6 4 14.6 0 24.1-0.6 9.8-0.8 19.9-2.2zm-89.1-47.7h57.2q0-6.7-2.2-11.5-2-5-8.2-7.5-6.1-2.8-18.2-2.8-17.6 0-23.2 6.1-5.4 5.9-5.4 15.7zm225 42.9l1.1 0.8v36.4q-7 2.8-20.7 4.2-13.7 1.4-29.1 1.4-22.2 0-37-6.1-14.6-6.2-21.9-21.3-7-15.1-7.3-42 0-27.8 7.6-43.2 7.9-15.4 22.7-21.5 14.8-6.2 35.6-6.2 12.3 0 26 1.7 13.8 1.7 22.4 4.5l0.3 37.5-0.8 0.6q-8.4-1.7-17.9-2.6-9.6-0.8-18.8-0.8-18.8 0-26.1 7-7.3 7-7.3 23.5 0 12.6 3.1 18.8 3.1 6.2 10.4 8.1 7.3 2 19.9 2 9.8 0 18.8-0.9 8.9-0.8 19-1.9zm71.2-29.7v70h-44.9v-188.2h44.9v76.7h0.8q3.9-12.6 14.3-19.3 10.6-7 27.7-7 16.3 0 26.6 5.3 10.7 5.3 15.7 18.8 5.3 13.2 5.3 37.2v76.5h-44.8l-0.3-67.8q0-15.7-4.7-22.4-4.8-6.7-18-6.7-11.7 0-17 6.2-5.4 6.1-5.6 20.7zm165.8 6.2v63.8h-44.8v-177.3h131.6v36.4h-86.8v40.6h81.2v36.5zm228.1 28.3v31q-7.9 2.8-21.9 5.1-13.7 1.9-32.8 1.9-24 0-41.1-6.1-16.8-6.5-25.5-21.6-8.7-15.4-8.7-42.6 0-36.9 16.8-53.5 17.1-16.5 52.7-16.5 25.5 0 40 7.3 14.9 7.3 21 20.7 6.5 13.2 6.5 31.4 0 5.3-0.6 11.5-0.3 6.1-1.4 12l-1.1 1.1h-92.2q2 12.4 11.5 16.3 9.8 3.9 31.7 3.9 14.5 0 24.1-0.5 9.8-0.9 19.9-2.3zm-89.1-47.6h57.1q0-6.7-2.2-11.5-2-5-8.1-7.6-6.2-2.8-18.3-2.8-17.6 0-23.2 6.2-5.3 5.9-5.3 15.7zm240.1 47.6v31.1q-7.9 2.8-21.9 5-13.7 2-32.8 2-24.1 0-41.2-6.2-16.8-6.4-25.5-21.5-8.6-15.4-8.6-42.6 0-37 16.8-53.5 17.1-16.5 52.6-16.5 25.5 0 40.1 7.2 14.8 7.3 21 20.8 6.5 13.1 6.5 31.3 0 5.4-0.6 11.5-0.3 6.2-1.4 12.1l-1.1 1.1h-92.2q2 12.3 11.5 16.2 9.8 4 31.6 4 14.6 0 24.1-0.6 9.8-0.8 19.9-2.2zm-89.1-47.7h57.2q0-6.7-2.2-11.4-2-5.1-8.2-7.6-6.1-2.8-18.2-2.8-17.6 0-23.2 6.2-5.4 5.8-5.4 15.6zm247.7 83.2h-42.6l-1.7-19.8h-1.1q-4.8 11.2-13.7 16.8-8.7 5.6-25.5 5.6-27.2 0-39.8-15.7-12.6-16-13.2-47.9-0.2-28.6 5.9-45.4 6.2-16.8 19.4-24.1 13.1-7.3 33.6-7.3 10.6 0 19.3 2 8.7 1.7 14 4.7l0.6-0.2v-57.2h44.8zm-70-35.6q11.2 0 18.2-7 7-7 7-23.2v-29.4q-10.4-4.2-24.4-4.2-13.2 0-19.1 6.4-5.6 6.2-5.6 25.2 0 16.3 4.5 24.4 4.8 7.8 19.4 7.8z"/>
</svg>